<svg width="32" height="32" xmlns="http://www.w3.org/2000/svg" fill="#333">
	<path d="m 16,11.59375 c -0.620145,0 -1.24032,0.232508 -1.707031,0.699219 l -2,2 c -0.933423,0.933423 -0.933423,2.480639 -10e-7,3.414062 l 2.001953,2.000001 c 0.933423,0.933423 2.478687,0.933422 3.412109,0 l 2,-2 c 0.933423,-0.933423 0.933423,-2.478686 1e-6,-3.412109 L 17.707029,12.29297 c -0.466711,-0.466711 -1.086886,-0.699218 -1.70703,-0.699218 z" />
	<path d="M 16,3 C 8.8321429,3 3,8.8321429 3,16 3,23.167857 8.8321429,29 16,29 23.167857,29 29,23.167857 29,16 29,13.670809 28.380109,11.484624 27.302734,9.5917969 26.897334,10.133224 26.339237,10.553394 25.693359,10.789062 26.526476,12.33916 27,14.112765 27,16 27,22.086977 22.086977,27 16,27 9.9130231,27 5,22.086977 5,16 5,9.9130231 9.9130231,5 16,5 c 1.887235,0 3.66084,0.4735238 5.210938,1.3066406 0.235668,-0.6458772 0.655838,-1.203975 1.197265,-1.609375 C 20.515376,3.6198908 18.329191,3 16,3 Z" />
	<path d="M 24.5,5 C 23.113366,5 22,6.1133658 22,7.5 22,8.8866342 23.113366,10 24.5,10 25.886634,10 27,8.8866342 27,7.5 27,6.1133658 25.886634,5 24.5,5 Z" />
</svg>